<?xml version="1.0" encoding="UTF-8"?>
<!DOCTYPE svg PUBLIC "-//W3C//DTD SVG 1.1//EN" "http://www.w3.org/Graphics/SVG/1.1/DTD/svg11.dtd">
<!-- Creator: CorelDRAW 2020 (64-Bit) -->
<svg xmlns="http://www.w3.org/2000/svg" xml:space="preserve" width="3.17331in" height="1.14246in" version="1.1" style="shape-rendering:geometricPrecision; text-rendering:geometricPrecision; image-rendering:optimizeQuality; fill-rule:evenodd; clip-rule:evenodd"
viewBox="0 0 2863.8 1031.03"
 xmlns:xlink="http://www.w3.org/1999/xlink"
 xmlns:xodm="http://www.corel.com/coreldraw/odm/2003">
 <defs>
  <style type="text/css">
   <![CDATA[
    .fil0 {fill:url(#id0);fill-rule:nonzero}
   ]]>
  </style>
  <linearGradient id="id0" gradientUnits="userSpaceOnUse" x1="2822.46" y1="1228.85" x2="543.73" y2="-83.48">
   <stop offset="0" style="stop-opacity:1; stop-color:#2B2A29"/>
   <stop offset="1" style="stop-opacity:1; stop-color:#007DC3"/>
  </linearGradient>
 </defs>
 <g id="Layer_x0020_1">
  <metadata id="CorelCorpID_0Corel-Layer"/>
  <path class="fil0" d="M12.86 977.26c-0.78,-2.34 -3.12,-4.87 -7.01,-7.6 -3.9,-2.73 -5.84,-8.38 -5.84,-16.95 0,-1.56 0.39,-3.51 1.17,-5.84 0.78,-2.34 1.17,-4.28 1.17,-5.84l-1.17 -2.34c0,-42.08 10.91,-98.19 32.73,-168.33 0.78,-3.12 1.36,-8.38 1.76,-15.78 0.39,-7.4 2.14,-11.49 5.26,-12.27 0.78,-8.57 3.51,-18.7 8.18,-30.39 4.68,-11.69 8.18,-20.26 10.52,-25.72l12.86 -43.25c2.34,-5.45 6.24,-13.64 11.69,-24.55 5.45,-10.91 8.18,-20.26 8.18,-28.05 -2.34,0 -3.9,0.39 -4.68,1.17 -25.72,10.91 -43.25,19.09 -52.61,24.55 -1.56,0 -3.12,0.58 -4.68,1.75 -1.56,1.17 -3.51,1.76 -5.84,1.76 -0.78,0 -2.92,-2.53 -6.43,-7.6 -3.51,-5.06 -5.26,-8.37 -5.26,-9.93 0,-3.9 12.47,-12.86 37.41,-26.89 24.94,-14.03 45.2,-24.55 60.79,-31.56 2.34,-1.56 12.86,-25.33 31.56,-71.31 7.01,-17.14 13.25,-31.56 18.7,-43.25 26.49,-52.99 46.76,-92.55 60.78,-118.65 14.03,-26.11 30.78,-52.41 50.27,-78.91 2.34,-3.12 5.65,-6.82 9.93,-11.11 4.29,-4.28 7.21,-7.99 8.77,-11.1l22.21 -22.21c3.9,-2.34 9.16,-5.65 15.78,-9.93 6.63,-4.29 12.86,-7.4 18.71,-9.35 5.84,-1.95 12.27,-2.92 19.29,-2.92 3.9,0 9.35,0.78 16.37,2.34 7.01,1.56 12.08,2.34 15.2,2.34l2.34 2.34 0 10.52c0,1.56 -8.18,4.09 -24.55,7.6 -16.37,3.51 -26.49,6.82 -30.39,9.93 -2.34,1.56 -4.68,3.7 -7.01,6.43 -2.34,2.73 -4.68,4.48 -7.01,5.26l-16.37 21.04c-4.68,6.23 -11.3,14.81 -19.87,25.72 -8.57,10.91 -15.59,20.65 -21.04,29.22 1.56,2.34 -3.51,11.69 -15.2,28.05 -8.57,13.25 -12.86,20.26 -12.86,21.04 -9.35,20.26 -16.75,35.46 -22.21,45.59 0,0 -7.4,15.97 -22.21,47.93 -21.82,52.99 -34.68,79.88 -38.58,80.66l0 8.18 3.51 1.17c0.78,-0.78 2.14,-1.56 4.09,-2.34 1.95,-0.78 3.7,-1.17 5.26,-1.17 49.88,-15.58 91.18,-23.38 123.91,-23.38l17.53 1.17c9.35,2.34 15.2,4.48 17.53,6.43 2.34,1.95 3.51,7.6 3.51,16.95 0,1.56 -0.39,2.92 -1.17,4.09 -0.78,1.17 -2.34,1.75 -4.68,1.75 -30.39,-2.34 -64.68,1.95 -102.87,12.86 -8.57,1.56 -25.13,6.63 -49.68,15.2 -24.55,8.57 -37.6,14.41 -39.16,17.53 -2.34,3.89 -4.48,9.16 -6.43,15.78 -1.95,6.63 -3.31,11.88 -4.09,15.78 -1.56,6.24 -7.01,20.65 -16.37,43.25l-10.52 23.38c-0.78,3.9 -3.31,13.64 -7.6,29.22 -4.28,15.59 -8.38,24.94 -12.27,28.06 0,4.68 -4.68,24.74 -14.03,60.2 -9.35,35.46 -14.81,53.58 -16.37,54.36l0 4.68c0,3.12 -0.39,5.65 -1.17,7.6 -0.78,1.95 -1.56,4.09 -2.34,6.43 -9.35,46.76 -14.03,79.49 -14.03,98.19l3.51 -1.17 12.86 -12.86 78.32 -102.87 23.38 -29.22 17.53 -23.38c1.56,-1.56 3.12,-4.09 4.68,-7.6 1.56,-3.51 3.51,-6.04 5.84,-7.6 24.94,-32.73 48.32,-60.59 70.14,-83.58 21.82,-22.99 45.59,-42.67 71.31,-59.03 1.56,-1.56 5.84,-4.87 12.86,-9.94 7.01,-5.06 12.86,-7.6 17.53,-7.6 2.34,0 4.87,2.53 7.6,7.6 2.73,5.07 4.09,9.16 4.09,12.28 -4.68,5.45 -10.91,11.11 -18.7,16.95 -7.79,5.84 -13.25,9.93 -16.37,12.27 -12.47,8.57 -24.16,17.92 -35.07,28.05 -17.92,17.92 -34.88,37.02 -50.85,57.28 -15.97,20.26 -36.43,47.15 -61.37,80.66l-53.77 68.97c-2.34,3.12 -8.57,12.08 -18.7,26.89 -14.81,23.38 -28.25,41.5 -40.33,54.36 -12.08,12.86 -25.91,19.29 -41.5,19.29 -5.45,0 -9.35,-2.73 -11.69,-8.18 -2.34,-5.45 -3.9,-8.96 -4.68,-10.52zm1255.77 -364.58l-15.14 15.52 0 49.38 -34 0 0 -214.9 34 0 0 124.02 10.65 -13.27 41.83 -47.14 40.83 0 -56.26 63.04 62.27 88.25 -39.3 0 -44.89 -64.9zm190.83 64.9c-1.53,-2.86 -2.82,-7.55 -3.92,-14.09 -10.84,11.32 -24.07,16.95 -39.73,16.95 -15.24,0 -27.6,-4.35 -37.25,-13.04 -9.6,-8.69 -14.38,-19.43 -14.38,-32.23 0,-16.14 5.97,-28.56 17.96,-37.2 11.99,-8.64 29.13,-12.94 51.43,-12.94l20.82 0 0 -9.93c0,-7.83 -2.2,-14.09 -6.54,-18.82 -4.4,-4.73 -11.08,-7.07 -20.01,-7.07 -7.73,0 -14.09,1.96 -19.05,5.83 -4.92,3.87 -7.4,8.79 -7.4,14.76l-34 0c0,-8.31 2.77,-16.05 8.26,-23.26 5.49,-7.21 12.99,-12.89 22.44,-16.95 9.46,-4.11 20.06,-6.16 31.71,-6.16 17.72,0 31.85,4.44 42.36,13.37 10.56,8.88 15.95,21.4 16.24,37.54l0 68.29c0,13.61 1.91,24.45 5.73,32.57l0 2.39 -34.67 0zm-37.39 -24.36c6.73,0 13.04,-1.62 18.96,-4.92 5.92,-3.25 10.41,-7.64 13.37,-13.18l0 -28.61 -18.34 0c-12.56,0 -22.01,2.2 -28.37,6.59 -6.35,4.39 -9.55,10.6 -9.55,18.67 0,6.54 2.2,11.75 6.54,15.62 4.35,3.87 10.13,5.83 17.38,5.83zm193.7 9.6c-9.98,11.75 -24.16,17.62 -42.55,17.62 -16.38,0 -28.84,-4.82 -37.25,-14.42 -8.45,-9.6 -12.66,-23.5 -12.66,-41.69l0 -98.04 34 0 0 97.57c0,19.2 7.98,28.8 23.88,28.8 16.52,0 27.7,-5.92 33.48,-17.77l0 -108.6 34 0 0 151.29 -32.04 0 -0.86 -14.76zm200.33 -59.36c0,23.54 -5.25,42.22 -15.76,56.11 -10.51,13.9 -24.93,20.87 -43.31,20.87 -17.72,0 -31.52,-6.4 -41.4,-19.15l-1.67 16.28 -30.8 0 0 -214.9 34 0 0 78.08c9.79,-11.56 23.02,-17.34 39.59,-17.34 18.48,0 33,6.88 43.51,20.58 10.55,13.71 15.85,32.85 15.85,57.5l0 1.96zm-34 -3.01c0,-16.43 -2.91,-28.7 -8.69,-36.92 -5.78,-8.21 -14.18,-12.32 -25.17,-12.32 -14.76,0 -25.12,6.45 -31.09,19.29l0 62.42c6.06,13.13 16.52,19.72 31.38,19.72 10.6,0 18.81,-3.97 24.59,-11.89 5.78,-7.93 8.79,-19.91 8.97,-35.96l0 -4.35zm152.91 77.13c-1.53,-2.86 -2.82,-7.55 -3.92,-14.09 -10.84,11.32 -24.07,16.95 -39.73,16.95 -15.24,0 -27.6,-4.35 -37.25,-13.04 -9.6,-8.69 -14.38,-19.43 -14.38,-32.23 0,-16.14 5.97,-28.56 17.96,-37.2 11.99,-8.64 29.13,-12.94 51.43,-12.94l20.82 0 0 -9.93c0,-7.83 -2.2,-14.09 -6.54,-18.82 -4.4,-4.73 -11.08,-7.07 -20.01,-7.07 -7.73,0 -14.09,1.96 -19.05,5.83 -4.92,3.87 -7.4,8.79 -7.4,14.76l-34 0c0,-8.31 2.77,-16.05 8.26,-23.26 5.49,-7.21 12.99,-12.89 22.44,-16.95 9.46,-4.11 20.06,-6.16 31.71,-6.16 17.72,0 31.85,4.44 42.36,13.37 10.56,8.88 15.95,21.4 16.24,37.54l0 68.29c0,13.61 1.91,24.45 5.73,32.57l0 2.39 -34.67 0zm-37.39 -24.36c6.73,0 13.04,-1.62 18.96,-4.92 5.92,-3.25 10.41,-7.64 13.37,-13.18l0 -28.61 -18.34 0c-12.56,0 -22.01,2.2 -28.37,6.59 -6.35,4.39 -9.55,10.6 -9.55,18.67 0,6.54 2.2,11.75 6.54,15.62 4.35,3.87 10.13,5.83 17.38,5.83zm133.91 -126.93l0.96 15.76c10.65,-12.42 25.21,-18.62 43.65,-18.62 20.25,0 34.09,7.73 41.6,23.21 10.98,-15.47 26.46,-23.21 46.42,-23.21 16.71,0 29.13,4.63 37.3,13.85 8.17,9.22 12.32,22.83 12.51,40.83l0 99.47 -34 0 0 -98.52c0,-9.6 -2.1,-16.67 -6.3,-21.11 -4.16,-4.49 -11.13,-6.73 -20.82,-6.73 -7.74,0 -14.09,2.05 -18.96,6.21 -4.92,4.15 -8.31,9.6 -10.27,16.33l0.14 103.82 -34 0 0 -99.62c-0.48,-17.81 -9.6,-26.74 -27.32,-26.74 -13.61,0 -23.26,5.54 -28.94,16.66l0 109.7 -34 0 0 -151.29 32.04 0zm307.83 151.29c-1.53,-2.86 -2.82,-7.55 -3.92,-14.09 -10.84,11.32 -24.07,16.95 -39.73,16.95 -15.24,0 -27.6,-4.35 -37.25,-13.04 -9.6,-8.69 -14.38,-19.43 -14.38,-32.23 0,-16.14 5.97,-28.56 17.96,-37.2 11.99,-8.64 29.13,-12.94 51.43,-12.94l20.82 0 0 -9.93c0,-7.83 -2.2,-14.09 -6.54,-18.82 -4.4,-4.73 -11.08,-7.07 -20.01,-7.07 -7.73,0 -14.09,1.96 -19.05,5.83 -4.92,3.87 -7.4,8.79 -7.4,14.76l-34 0c0,-8.31 2.77,-16.05 8.26,-23.26 5.49,-7.21 12.99,-12.89 22.44,-16.95 9.46,-4.11 20.06,-6.16 31.71,-6.16 17.72,0 31.85,4.44 42.36,13.37 10.56,8.88 15.95,21.4 16.24,37.54l0 68.29c0,13.61 1.91,24.45 5.73,32.57l0 2.39 -34.67 0zm-37.39 -24.36c6.73,0 13.04,-1.62 18.96,-4.92 5.92,-3.25 10.41,-7.64 13.37,-13.18l0 -28.61 -18.34 0c-12.56,0 -22.01,2.2 -28.37,6.59 -6.35,4.39 -9.55,10.6 -9.55,18.67 0,6.54 2.2,11.75 6.54,15.62 4.35,3.87 10.13,5.83 17.38,5.83zm-40.59 -166.62c0,-4.63 1.58,-8.55 4.73,-11.75 3.1,-3.15 7.4,-4.73 12.94,-4.73 5.49,0 9.84,1.58 12.99,4.73 3.2,3.2 4.78,7.11 4.78,11.75 0,4.63 -1.57,8.55 -4.78,11.75 -3.15,3.15 -7.5,4.73 -12.99,4.73 -5.54,0 -9.84,-1.57 -12.94,-4.73 -3.15,-3.2 -4.73,-7.12 -4.73,-11.75zm63.94 0.05c0,-4.63 1.58,-8.5 4.68,-11.65 3.16,-3.15 7.45,-4.73 12.94,-4.73 5.54,0 9.88,1.58 13.04,4.73 3.15,3.15 4.78,7.02 4.78,11.65 0,4.63 -1.62,8.55 -4.78,11.7 -3.15,3.15 -7.5,4.73 -13.04,4.73 -5.49,0 -9.79,-1.57 -12.94,-4.73 -3.1,-3.16 -4.68,-7.07 -4.68,-11.7zm157.93 70.53c-4.49,-0.72 -9.12,-1.1 -13.85,-1.1 -15.57,0 -26.07,5.97 -31.47,17.91l0 103.58 -34 0 0 -151.29 32.42 0 0.86 16.86c8.21,-13.13 19.58,-19.72 34.14,-19.72 4.82,0 8.84,0.67 12.03,1.96l-0.14 31.81zm12.84 43.65c0,-23.55 5.49,-42.31 16.57,-56.35 11.03,-14.04 25.69,-21.06 43.98,-21.06 17.24,0 30.85,6.02 40.74,18.05l1.53 -15.19 30.61 0 0 146.71c0,19.86 -6.16,35.53 -18.53,46.99 -12.37,11.46 -29.04,17.19 -50,17.19 -11.08,0 -21.96,-2.29 -32.52,-6.92 -10.6,-4.63 -18.62,-10.65 -24.16,-18.1l16.1 -20.44c10.46,12.37 23.35,18.53 38.63,18.53 11.27,0 20.2,-3.06 26.7,-9.12 6.54,-6.11 9.83,-15.04 9.83,-26.89l0 -10.17c-9.83,10.94 -22.87,16.38 -39.2,16.38 -17.72,0 -32.19,-7.07 -43.41,-21.15 -11.27,-14.09 -16.86,-33.57 -16.86,-58.45zm33.86 2.86c0,15.19 3.1,27.12 9.26,35.86 6.21,8.74 14.81,13.09 25.84,13.09 13.7,0 23.88,-5.87 30.51,-17.62l0 -66.62c-6.45,-11.46 -16.52,-17.19 -30.23,-17.19 -11.22,0 -19.91,4.44 -26.12,13.27 -6.16,8.88 -9.26,21.92 -9.26,39.21zm170.58 73.88l-34 0 0 -151.29 34 0 0 151.29zm-36.1 -190.83c0,-5.25 1.67,-9.65 4.97,-13.13 3.34,-3.49 8.07,-5.21 14.23,-5.21 6.16,0 10.89,1.72 14.28,5.21 3.34,3.49 5.01,7.88 5.01,13.13 0,5.16 -1.67,9.46 -5.01,12.89 -3.39,3.44 -8.12,5.16 -14.28,5.16 -6.16,0 -10.89,-1.72 -14.23,-5.16 -3.3,-3.44 -4.97,-7.73 -4.97,-12.89zm66.71 114.09c0,-23.35 5.4,-42.07 16.24,-56.21 10.84,-14.14 25.31,-21.2 43.51,-21.2 16.05,0 29.04,5.59 38.92,16.81l0 -77.56 34 0 0 214.9 -30.8 0 -1.67 -15.62c-10.17,12.32 -23.73,18.48 -40.74,18.48 -17.72,0 -32.04,-7.11 -43.03,-21.39 -10.94,-14.28 -16.43,-33.71 -16.43,-58.21zm34 2.86c0,15.38 2.96,27.37 8.88,36.01 5.92,8.64 14.33,12.94 25.26,12.94 13.9,0 24.07,-6.21 30.52,-18.62l0 -64.61c-6.26,-12.13 -16.33,-18.19 -30.23,-18.19 -11.03,0 -19.48,4.35 -25.45,13.08 -5.97,8.74 -8.98,21.83 -8.98,39.4zm-2380.55 33.39c0,-4.68 0.39,-10.13 1.17,-16.37 0.78,-6.24 0.78,-11.3 0,-15.2 0.78,-2.34 1.56,-7.01 2.34,-14.03 0.78,-7.01 1.95,-13.25 3.51,-18.7 7.01,-19.48 16.76,-38.19 29.22,-56.11 12.47,-17.92 26.11,-26.89 40.91,-26.89 16.37,0 24.55,8.57 24.55,25.72l-1.17 14.03c-0.78,0 -1.36,0 -1.76,0 -0.39,0 -0.58,0.39 -0.58,1.17 -21.82,35.07 -44.03,51.82 -66.63,50.27l-2.34 2.34c-0.78,5.45 -1.95,12.66 -3.51,21.62 -1.56,8.96 -3.12,15.78 -4.68,20.46 0.78,3.9 0.97,7.6 0.59,11.11 -0.39,3.51 -0.59,6.82 -0.59,9.93 0,14.81 2.73,24.16 8.18,28.05l4.68 0c7.01,0 14.42,-2.73 22.21,-8.18 7.8,-5.45 13.25,-9.35 16.37,-11.69l23.38 -25.72c28.83,-33.51 53.38,-54.55 73.64,-63.12 2.34,0 3.51,0.78 3.51,2.34l0 9.35c-13.25,5.45 -30.39,21.43 -51.43,47.93 -7.8,10.13 -15.98,19.48 -24.55,28.05 -1.56,0 -4.68,3.51 -9.35,10.52 -21.04,23.38 -40.13,35.07 -57.28,35.07 -10.91,0 -18.7,-7.01 -23.38,-21.04 -4.68,-14.03 -7.01,-27.66 -7.01,-40.91zm36.24 -72.47c7.01,0 17.53,-7.21 31.56,-21.63 14.03,-14.42 21.04,-24.74 21.04,-30.98 0,-1.56 -1.95,-2.34 -5.85,-2.34 -7.79,0 -17.53,7.01 -29.22,21.04 -11.69,14.03 -17.53,25.33 -17.53,33.9zm95.86 38.58c0,-1.56 0.59,-3.31 1.76,-5.26 1.17,-1.95 1.75,-3.7 1.75,-5.26 0,-1.56 -0.58,-3.31 -1.75,-5.26 -1.17,-1.95 -1.76,-3.7 -1.76,-5.26 0,-7.8 4.09,-15.2 12.28,-22.21 8.18,-7.01 12.27,-11.69 12.27,-14.03 26.5,-27.28 60.59,-57.67 102.28,-91.18 41.69,-33.51 71.11,-50.26 88.26,-50.26l4.68 0c0.78,0 1.56,0.58 2.34,1.75 0.78,1.17 1.17,2.14 1.17,2.92l0 12.86 -16.37 9.35c-4.68,3.12 -14.42,9.74 -29.22,19.87 -14.81,10.13 -26.89,19.87 -36.24,29.22 -10.91,10.91 -17.53,17.15 -19.87,18.7 -15.59,10.91 -27.28,20.26 -35.07,28.05 -4.68,4.68 -9.74,10.13 -15.2,16.37 -5.45,6.23 -12.08,12.86 -19.87,19.87l0 3.51c24.94,0 45.2,0.78 60.79,2.34 15.58,1.56 31.95,5.45 49.1,11.69 3.12,1.56 6.82,4.09 11.11,7.6 4.28,3.51 7.6,5.26 9.93,5.26 3.9,0 12.08,-4.29 24.55,-12.86 21.04,-12.47 35.46,-18.7 43.25,-18.7 3.9,0 5.85,1.95 5.85,5.84 0,5.45 -1.56,8.57 -4.68,9.35l-2.34 -1.17 -1.17 0c-8.57,3.12 -20.26,8.18 -35.07,15.2 -14.81,7.01 -22.21,12.08 -22.21,15.2 0,3.9 0.39,7.6 1.17,11.1 0.78,3.51 1.17,7.21 1.17,11.11 0,18.7 -9.35,40.13 -28.05,64.29 -18.7,24.16 -40.72,45.01 -66.05,62.54 -25.33,17.53 -46.95,26.3 -64.88,26.3 -6.24,0 -10.13,-2.34 -11.69,-7.01 -1.56,-4.68 -2.34,-10.91 -2.34,-18.7 0,-14.81 12.66,-34.88 37.99,-60.2 25.33,-25.33 48.12,-45.78 68.38,-61.37l29.22 -22.21 2.34 -1.17c-2.34,-3.12 -12.66,-6.04 -30.98,-8.77 -18.31,-2.73 -31.76,-4.48 -40.33,-5.26 -4.68,0 -11.11,0.97 -19.29,2.92 -8.18,1.95 -14.22,2.53 -18.12,1.76 -3.12,0.78 -8.38,2.73 -15.78,5.84 -7.4,3.12 -13.84,4.68 -19.29,4.68 -9.35,0 -14.03,-3.12 -14.03,-9.35zm170.67 16.37c-4.68,0 -19.09,10.13 -43.25,30.39 -24.16,20.26 -46.37,41.5 -66.63,63.71 -20.26,22.21 -30.39,38.38 -30.39,48.51 0,1.56 1.56,2.34 4.68,2.34 11.69,0 29.03,-8.18 52.02,-24.55 22.99,-16.37 43.64,-34.88 61.95,-55.53 18.32,-20.65 27.47,-37.21 27.47,-49.68 0,-10.13 -1.95,-15.2 -5.84,-15.2zm-104.04 -296.92c-2.34,0 -3.9,-1.17 -4.68,-3.51 0,-7.79 3.9,-13.05 11.69,-15.78 7.8,-2.73 17.73,-4.87 29.81,-6.43 12.08,-1.56 19.68,-2.73 22.79,-3.51l66.63 -8.18 3.51 0c3.12,0 12.86,-1.17 29.22,-3.51l87.67 -9.35 14.03 0c14.81,0 24.16,-1.17 28.05,-3.51 3.12,-1.56 25.33,-41.69 66.63,-120.4 41.3,-78.71 61.96,-121.18 61.96,-127.42l-1.17 -5.84c0,-3.12 1.36,-6.43 4.09,-9.93 2.73,-3.51 5.65,-5.26 8.77,-5.26 6.23,0 9.35,9.35 9.35,28.05 0,24.16 -15.59,66.24 -46.76,126.25 -1.56,0.78 -2.92,2.73 -4.09,5.84 -1.17,3.12 -2.92,5.07 -5.26,5.84 -0.78,6.24 -3.51,12.08 -8.18,17.53 0.78,3.12 -1.75,9.74 -7.6,19.88 -5.84,10.13 -9.16,15.97 -9.94,17.53 -14.03,23.38 -21.04,37.8 -21.04,43.25 16.37,0 47.54,-3.51 93.52,-10.52l30.39 -4.68c10.13,0.78 22.6,-0.2 37.41,-2.92 14.81,-2.73 25.72,-4.48 32.73,-5.26l80.66 -7.01 18.7 -1.17 95.85 -8.18c12.47,0.78 31.17,-0.39 56.11,-3.51 20.26,-3.12 35.46,-4.68 45.59,-4.68 6.24,0 9.35,1.95 9.35,5.84 0,9.35 -11.3,14.03 -33.9,14.03l-3.51 -1.17c-3.9,0 -8.18,0.58 -12.86,1.75 -4.68,1.17 -9.35,1.76 -14.03,1.76l-40.92 3.51c-42.08,4.68 -73.64,6.62 -94.68,5.84 -3.9,0.78 -9.94,1.75 -18.12,2.92 -8.18,1.17 -15,1.76 -20.45,1.76l-1.17 -1.17c-5.46,0 -12.67,0.78 -21.63,2.34 -8.96,1.56 -16.95,2.73 -23.97,3.51l-78.32 7.01c-3.9,0.78 -8.57,1.75 -14.03,2.92 -5.46,1.17 -10.13,1.76 -14.03,1.76l-2.34 0 -3.51 -1.17c-3.12,0 -6.04,0.58 -8.77,1.75 -2.73,1.17 -5.26,2.15 -7.6,2.92 -14.03,3.12 -30.2,5.26 -48.51,6.43 -18.32,1.17 -30.59,2.15 -36.82,2.92 -1.56,0.78 -3.12,0.97 -4.68,0.58 -1.56,-0.39 -2.34,-0.58 -2.34,-0.58 -4.68,0 -8.38,3.9 -11.1,11.69 -2.73,7.79 -4.48,12.86 -5.26,15.2 -1.56,3.9 -11.49,26.5 -29.81,67.8 -18.31,41.3 -28.25,61.95 -29.81,61.95 0.78,10.13 -4.68,28.45 -16.37,54.94l-9.36 24.55c-4.68,17.15 -12.47,42.86 -23.38,77.15 -2.34,0.78 -6.62,13.64 -12.86,38.58 -6.23,25.72 -10.91,38.97 -14.03,39.74l1.17 5.84c0,3.9 -1.95,13.25 -5.84,28.06 -3.9,14.81 -6.62,22.6 -8.18,23.38 0.78,8.57 -0.39,20.65 -3.51,36.24 -2.34,12.47 -3.51,24.94 -3.51,37.41l-1.17 2.34 -2.34 2.34 1.17 3.51 1.17 3.51c0,3.9 -0.58,7.8 -1.75,11.69 -1.17,3.9 -1.76,8.18 -1.76,12.86l1.17 10.52c0,0.78 0,2.73 0,5.84 0,3.12 -0.78,5.46 -2.34,7.01l0 19.88c-1.56,2.34 -2.34,4.28 -2.34,5.84l1.17 12.86 -1.17 2.34 1.17 5.84 0 7.01c0,2.34 -0.39,4.48 -1.17,6.43 -0.78,1.95 -1.17,4.09 -1.17,6.43 0,2.34 0.78,4.28 2.34,5.84l0 16.37 -2.34 5.84c0,5.45 3.12,15.39 9.35,29.81 6.24,14.41 11.3,21.62 15.2,21.62 10.13,0 19.87,-7.21 29.22,-21.62 9.35,-14.42 16.76,-27.67 22.21,-39.75 5.46,-12.08 8.96,-19.29 10.52,-21.62l26.89 -54.94 1.17 -3.51c10.13,-22.6 26.89,-56.5 50.26,-101.7 3.9,-4.68 7.79,-11.11 11.69,-19.29 3.9,-8.18 7.01,-14.61 9.35,-19.29l15.2 -24.55c21.82,-32.73 33.12,-51.82 33.9,-57.28l10.52 -14.03c0.78,-0.78 1.76,-1.75 2.92,-2.92 1.17,-1.17 2.14,-2.53 2.92,-4.09 9.35,-13.25 20.45,-26.49 33.31,-39.74 12.86,-13.25 23.97,-19.87 33.32,-19.87 2.34,0 4.28,2.73 5.84,8.18 -1.56,3.89 -5.07,5.84 -10.52,5.84 0,3.12 -2.34,6.04 -7.01,8.77 -4.68,2.73 -7.8,4.48 -9.35,5.26 -20.26,15.59 -44.81,47.73 -73.65,96.44 -28.83,48.71 -51.82,91.37 -68.97,128l-2.34 1.17c-2.34,3.12 -5.07,8.77 -8.18,16.95 -3.12,8.18 -5.46,13.83 -7.01,16.95 -7.8,18.71 -15.98,35.85 -24.55,51.44 -3.9,7.01 -8.96,18.31 -15.2,33.9l-10.52 25.72c-6.24,14.81 -15.2,29.61 -26.89,44.42 -11.69,14.81 -22.99,22.21 -33.9,22.21l-2.34 -1.17 -3.51 -2.34c-12.47,-3.89 -23.18,-16.75 -32.15,-38.58 -8.96,-21.82 -13.44,-40.91 -13.44,-57.28l0 -7.01c0.78,-0.78 1.17,-2.34 1.17,-4.68 0,-2.34 -0.39,-3.9 -1.17,-4.68l0 -15.2 1.17 -2.34 0 -40.92 1.17 -2.34 -1.17 -10.52c0,-3.12 0.78,-7.01 2.34,-11.69 1.56,-4.68 2.34,-8.57 2.34,-11.69 0,-2.34 -0.39,-4.28 -1.17,-5.84 -0.78,-1.56 -1.17,-3.51 -1.17,-5.84 0,-34.29 3.9,-69.36 11.69,-105.21 7.79,-35.85 18.31,-75.59 31.56,-119.23l26.89 -84.17c2.34,-7.01 6.43,-21.04 12.28,-42.08 5.84,-21.04 12.66,-36.24 20.45,-45.59 -0.78,-5.46 2.15,-15.78 8.77,-30.98 6.62,-15.2 13.83,-30.59 21.63,-46.17 13.25,-27.28 20.26,-43.25 21.04,-47.93l-9.35 -1.17c-5.46,0 -12.08,0.59 -19.87,1.76 -7.8,1.17 -14.42,2.14 -19.88,2.92l-79.49 7.01c-4.68,0.78 -11.49,1.95 -20.46,3.51 -8.96,1.56 -16.17,1.95 -21.62,1.17l-63.13 7.01c-3.89,0 -8.77,0.39 -14.61,1.17 -5.84,0.78 -8.77,1.56 -8.77,2.34l-11.69 1.17c-2.34,0 -4.68,1.36 -7.01,4.09 -2.34,2.73 -3.9,4.09 -4.68,4.09zm497.98 175.34c-1.56,0 -3.7,-2.14 -6.43,-6.43 -2.73,-4.29 -4.48,-7.6 -5.26,-9.94 0,-6.24 1.95,-12.66 5.84,-19.29 3.9,-6.63 8.18,-9.94 12.86,-9.94l3.51 0c2.34,1.56 4.29,4.48 5.85,8.77 1.56,4.28 2.34,8.37 2.34,12.27 -6.24,16.37 -12.47,24.55 -18.71,24.55zm-67.8 137.94c0,-9.35 7.01,-31.37 21.04,-66.05 14.03,-34.68 24.16,-52.02 30.39,-52.02 3.12,0 5.84,1.76 8.18,5.26 2.34,3.51 3.51,6.82 3.51,9.93 0,5.46 -2.73,16.56 -8.18,33.32 -5.45,16.76 -10.13,25.91 -14.03,27.47 0.78,5.45 0,11.69 -2.34,18.7 -2.34,7.01 -3.89,11.3 -4.68,12.86 -5.45,9.35 -8.18,18.31 -8.18,26.89 5.46,0 13.25,-5.45 23.38,-16.37 10.13,-10.91 16.76,-17.92 19.87,-21.04 17.92,-15.59 33.12,-30.01 45.59,-43.25 3.12,-2.34 6.23,-3.51 9.35,-3.51 4.68,0 7.01,3.12 7.01,9.35 -4.68,2.34 -14.61,11.69 -29.81,28.05 -15.2,16.37 -26.3,28.83 -33.32,37.41l-16.37 18.7c-1.56,0 -5.06,2.73 -10.52,8.18 -5.45,5.46 -10.91,8.18 -16.37,8.18 -5.45,0 -10.91,-5.45 -16.37,-16.37 -5.45,-10.91 -8.18,-19.48 -8.18,-25.72z"/>
 </g>
</svg>
